<?xml version="1.0" encoding="UTF-8"?>
<svg width="230px" height="279px" viewBox="0 0 230 279" version="1.1" xmlns="http://www.w3.org/2000/svg" xmlns:xlink="http://www.w3.org/1999/xlink">
    <!-- Generator: Sketch 46.2 (44496) - http://www.bohemiancoding.com/sketch -->
    <title>Group</title>
    <desc>Created with Sketch.</desc>
    <defs></defs>
    <g id="Welcome" stroke="none" stroke-width="1" fill="none" fill-rule="evenodd">
        <g id="Desktop" transform="translate(-249.000000, -2391.000000)">
            <g id="Group" transform="translate(248.000000, 2388.000000)">
                <text id="FIRST" font-family="Encode Sans" font-size="13" font-weight="300" letter-spacing="0.367676795" fill="#FFFFFF">
                    <tspan x="0.428308014" y="13">FIRST</tspan>
                </text>
                <text id="make-it-work" font-family="Encode Sans" font-size="36" font-weight="bold" letter-spacing="0.28125">
                    <tspan x="0.3945" y="41" fill="#FFFFFF">make it </tspan>
                    <tspan x="139.3185" y="41" fill="#98E5F6">work</tspan>
                </text>
                <text id="make-it-nice" font-family="Encode Sans" font-size="36" font-weight="bold" letter-spacing="0.28125">
                    <tspan x="12.3975" y="281" fill="#FFFFFF">make it </tspan>
                    <tspan x="151.3215" y="281" fill="#8DEBFA">nice</tspan>
                </text>
                <text id="THEN" font-family="Encode Sans" font-size="13" font-weight="300" letter-spacing="0.367676795" fill="#FFFFFF">
                    <tspan x="12.4718964" y="253">THEN</tspan>
                </text>
                <path d="M106.396,138.623856 C104.334,138.623856 102.392,137.820333 100.935,136.358383 C100.928,136.351378 100.915,136.35438 100.906,136.347376 C100.448,134.561215 99.564,132.864112 98.169,131.469205 C97.592,130.89283 96.661,130.89283 96.085,131.469205 C95.511,132.042578 95.511,132.976185 96.085,133.550558 C99.1,136.566518 99.1,141.471707 96.085,144.485666 C95.511,145.060039 95.511,145.992645 96.085,146.567019 C96.373,146.854205 96.751,146.9993 97.127,146.9993 C97.503,146.9993 97.881,146.854205 98.169,146.567019 C99.959,144.775854 100.93,142.497373 101.18,140.154851 C102.76,141.051433 104.531,141.570771 106.396,141.570771 C109.244,141.570771 111.923,140.460049 113.938,138.444739 C114.515,137.867364 114.515,136.935758 113.938,136.360384 C113.365,135.78401 112.433,135.78401 111.856,136.360384 C110.399,137.821334 108.458,138.623856 106.396,138.623856 M122.503,132.425827 C121.042,130.961875 120.238,129.021614 120.238,126.955271 C120.237,124.890929 121.042,122.949667 122.502,121.493721 C123.074,120.918347 123.074,119.982739 122.502,119.408365 C121.93,118.835993 120.997,118.836994 120.419,119.406364 C118.678,121.149497 117.663,123.400961 117.406,125.818532 C115.826,124.921949 114.055,124.404613 112.19,124.404613 C109.341,124.404613 106.661,125.514334 104.647,127.533647 C104.073,128.10802 104.073,129.038625 104.647,129.613999 C105.223,130.190374 106.155,130.190374 106.729,129.613999 C108.189,128.155051 110.129,127.351528 112.19,127.351528 C114.255,127.351528 116.194,128.155051 117.65,129.613999 C117.658,129.620003 117.666,129.617001 117.671,129.624006 C118.142,131.448191 119.052,133.137289 120.419,134.505178 C120.708,134.792365 121.085,134.93846 121.461,134.93846 C121.837,134.93846 122.215,134.792365 122.503,134.505178 C123.076,133.929804 123.076,132.998199 122.503,132.425827 M125.564,142.273228 C126.138,141.696853 126.138,140.764247 125.564,140.188873 C124.991,139.612498 124.058,139.613499 123.482,140.186871 C122.115,141.556762 121.204,143.243859 120.734,145.070046 C120.729,145.075049 120.72,145.072047 120.715,145.078051 C119.258,146.536999 117.316,147.340521 115.253,147.340521 C113.189,147.340521 111.248,146.536999 109.792,145.078051 C109.218,144.500675 108.287,144.500675 107.711,145.078051 C107.133,145.652424 107.133,146.58503 107.711,147.159404 C109.724,149.173713 112.403,150.287437 115.253,150.287437 C117.116,150.287437 118.888,149.766098 120.468,148.874518 C120.724,151.291089 121.738,153.541552 123.478,155.281683 C123.768,155.571872 124.145,155.714965 124.52,155.714965 C124.898,155.714965 125.275,155.570871 125.563,155.281683 C126.136,154.70731 126.136,153.775704 125.563,153.202332 C124.104,151.740381 123.302,149.80012 123.302,147.734778 C123.302,145.671436 124.105,143.730175 125.564,142.273228 M131.384,149.534948 C131.384,150.348477 132.046,151.010907 132.86,151.010907 C137.117,151.010907 140.585,154.475159 140.585,158.73793 C140.585,158.750938 140.597,158.758943 140.597,158.767949 C139.661,160.354981 139.086,162.181168 139.086,164.155451 C139.086,164.967979 139.744,165.628408 140.558,165.628408 C141.372,165.628408 142.031,164.96898 142.031,164.155451 C142.031,159.888678 145.496,156.425427 149.756,156.425427 C150.57,156.425427 151.231,155.763997 151.231,154.950468 C151.231,154.136939 150.569,153.47651 149.756,153.47651 C147.223,153.47651 144.927,154.402111 143.094,155.881073 C141.836,151.38515 137.75,148.06099 132.862,148.06099 C132.046,148.06199 131.384,148.720418 131.384,149.534948 M142.882,124.244509 C143.46,123.670136 143.46,122.737529 142.882,122.160154 C142.307,121.585781 141.375,121.585781 140.8,122.160154 C139.341,123.621104 137.399,124.425627 135.338,124.425627 C133.276,124.425627 131.337,123.622104 129.88,122.164157 C129.305,121.589783 128.373,121.589783 127.799,122.164157 C127.223,122.740531 127.223,123.672137 127.799,124.247511 C129.54,125.991645 131.787,127.008305 134.204,127.264472 C131.919,131.329114 132.462,136.571521 135.915,140.026767 C136.204,140.315955 136.579,140.460049 136.955,140.460049 C137.33,140.460049 137.711,140.314955 137.997,140.026767 C138.57,139.451393 138.57,138.519788 137.997,137.946415 C134.982,134.932456 134.982,130.027268 137.997,127.013309 C138.003,127.009306 138.001,126.9993 138.005,126.994296 C139.831,126.523991 141.516,125.612398 142.882,124.244509 M162.206,138.395707 C162.206,137.581178 161.545,136.920748 160.732,136.920748 C158.269,136.920748 155.962,137.795317 154.073,139.32331 C153.588,137.572172 152.703,135.95312 151.385,134.632261 C149.37,132.618952 146.692,131.509231 143.841,131.509231 C143.028,131.509231 142.368,132.165658 142.368,132.981188 C142.368,133.793716 143.027,134.456146 143.841,134.456146 C145.906,134.456146 147.844,135.259669 149.302,136.717616 C150.762,138.177565 151.567,140.118827 151.567,142.18417 C151.567,142.190174 151.574,142.194176 151.574,142.201181 C150.616,143.824236 150.069,145.660429 150.069,147.60069 C150.069,148.412218 150.727,149.073648 151.541,149.073648 C152.355,149.073648 153.015,148.412218 153.015,147.60069 C153.015,145.535348 153.816,143.594086 155.279,142.135138 C156.732,140.675189 158.673,139.871667 160.734,139.871667 C161.545,139.869665 162.206,139.209236 162.206,138.395707 M171.715,148.218092 C171.715,152.15365 169.046,155.481813 165.225,156.310352 L162.546,156.893731 L163.227,159.551458 C163.393,160.204883 163.479,160.880322 163.479,161.559764 C163.479,166.125732 159.762,169.842147 155.198,169.842147 C155.089,169.842147 154.981,169.840146 154.874,169.834142 L152.37,169.727073 L152.131,172.223695 C151.728,176.420423 148.107,179.708561 143.888,179.708561 C139.32,179.708561 135.605,175.990144 135.605,171.421174 C135.605,171.265072 135.611,171.110972 135.621,170.958873 L135.753,168.779457 L133.639,168.238105 C131.076,167.581678 128.964,165.719468 127.994,163.256867 L127.103,160.993396 L124.774,161.693851 C121.917,162.55441 118.679,161.762896 116.524,159.682544 L114.673,157.894381 L112.837,159.699555 C111.285,161.224546 109.228,162.065092 107.045,162.065092 C103.263,162.065092 99.968,159.50743 99.03,155.848051 L98.295,152.977185 L95.528,154.033872 C94.579,154.397108 93.584,154.580227 92.57,154.580227 C88.003,154.580227 84.287,150.862811 84.287,146.29284 C84.287,144.316556 84.955,142.478361 86.219,140.977385 L87.629,139.301296 L86.246,137.603192 C85.035,136.116226 84.395,134.312053 84.395,132.385801 C84.395,128.150048 87.692,124.525692 91.902,124.136439 L94.087,123.934307 L94.29,121.746885 C94.68,117.535148 98.302,114.237004 102.535,114.237004 C104.352,114.237004 106.073,114.810377 107.511,115.897083 L110.076,117.836344 L111.48,114.941462 C112.874,112.070596 115.728,110.288437 118.928,110.288437 C121.393,110.288437 123.706,111.373143 125.275,113.266373 L127.308,115.718967 L129.342,113.266373 C130.912,111.374143 133.227,110.288437 135.69,110.288437 C138.573,110.288437 141.294,111.835443 142.791,114.324061 L144.108,116.514484 L146.339,115.271677 C147.575,114.58423 148.923,114.236003 150.345,114.236003 C152.551,114.236003 154.624,115.095562 156.182,116.656577 C157.557,118.033472 158.385,119.791615 158.579,121.736879 L158.831,124.275529 L161.376,124.113424 C161.529,124.104418 161.68,124.097413 161.826,124.097413 C166.392,124.097413 170.107,127.81483 170.107,132.383799 C170.107,134.720318 169.105,136.961775 167.355,138.533797 L165.652,140.043778 L167.611,141.070446 C170.141,142.563416 171.715,145.301196 171.715,148.218092 M173.549,139.196228 C174.742,137.145895 175.391,134.797368 175.391,132.386801 C175.391,125.437284 170.145,119.690549 163.41,118.902036 C162.791,116.648572 161.606,114.611247 159.921,112.921149 C157.364,110.358483 153.963,108.948567 150.344,108.948567 C148.837,108.948567 147.343,109.201731 145.929,109.688047 C143.371,106.752139 139.624,105 135.689,105 C132.609,105 129.672,106.034673 127.309,107.900886 C124.945,106.033672 122.008,105 118.928,105 C114.662,105 110.771,106.937259 108.238,110.196378 C106.469,109.373843 104.537,108.947566 102.535,108.947566 C96.188,108.947566 90.848,113.236354 89.372,119.213239 C83.396,120.690199 79.108,126.033672 79.108,132.386801 C79.108,134.806374 79.76,137.180918 80.97,139.248261 C79.69,141.357632 79,143.796218 79,146.293841 C79,153.780707 85.086,159.871667 92.568,159.871667 C93.328,159.871667 94.082,159.808626 94.826,159.683544 C97.048,164.305549 101.756,167.356532 107.043,167.356532 C109.818,167.356532 112.47,166.526993 114.709,164.986992 C117.446,166.810177 120.817,167.6147 124.077,167.223445 C125.548,169.660029 127.758,171.583279 130.378,172.703007 C131.024,179.590484 136.835,185 143.887,185 C150.124,185 155.401,180.842297 156.977,175.014509 C163.619,174.140942 168.764,168.440236 168.764,161.560764 C168.764,161.283584 168.755,161.005404 168.737,160.730225 C173.704,158.653875 177,153.807725 177,148.218092 C177,144.862911 175.734,141.653825 173.549,139.196228" id="Shape" fill="#FFFFFF" fill-rule="nonzero"></path>
                <path d="M108,75 L148,75" id="Line" stroke-opacity="0.4" stroke="#FFFFFF" stroke-width="4" stroke-linecap="square" stroke-dasharray="8,8" transform="translate(128.000000, 75.000000) rotate(90.000000) translate(-128.000000, -75.000000) "></path>
                <path d="M108,215 L148,215" id="Line-Copy" stroke-opacity="0.4" stroke="#FFFFFF" stroke-width="4" stroke-linecap="square" stroke-dasharray="8,8" transform="translate(128.000000, 215.000000) rotate(90.000000) translate(-128.000000, -215.000000) "></path>
            </g>
        </g>
    </g>
</svg>
