<?xml version="1.0" encoding="UTF-8"?>
<svg width="112px" height="20px" viewBox="0 0 112 20" version="1.1" xmlns="http://www.w3.org/2000/svg" xmlns:xlink="http://www.w3.org/1999/xlink">
    <!-- Generator: Sketch 46.2 (44496) - http://www.bohemiancoding.com/sketch -->
    <title>logo / inline</title>
    <desc>Created with Sketch.</desc>
    <defs></defs>
    <g id="Welcome" stroke="none" stroke-width="1" fill="none" fill-rule="evenodd">
        <g id="Desktop" transform="translate(-40.000000, -30.000000)" fill="#444444">
            <g id="logo-/-inline" transform="translate(40.000000, 30.000000)">
                <path d="M9.20194842,19.7618246 C6.41270812,19.7453566 4.34556546,18.9796099 3.00045845,17.4645614 C1.65535144,15.9495129 0.982808023,13.5946359 0.982808023,10.3998596 C0.982808023,7.1721476 1.64709937,4.79668598 2.97570201,3.27340351 C4.30430464,1.75012104 6.34669109,0.988491228 9.10292264,0.988491228 C9.63106281,0.988491228 10.2169595,1.02142657 10.8606304,1.08729825 C11.5043012,1.15316992 12.1727186,1.24374211 12.8659026,1.35901754 L12.8659026,3.60687719 C12.1727186,3.47513384 11.5496876,3.38456165 10.9967908,3.33515789 C10.4438941,3.28575414 9.92813993,3.26105263 9.44951289,3.26105263 C8.4262413,3.26105263 7.55564829,3.38867709 6.83770774,3.64392982 C6.11976718,3.89918256 5.53387046,4.31087435 5.08,4.87901754 C4.62612954,5.44716074 4.29192084,6.18408904 4.0773639,7.08982456 C3.86280695,7.99556008 3.75553009,9.09889408 3.75553009,10.3998596 C3.75553009,11.6678894 3.86280695,12.7506388 4.0773639,13.6481404 C4.29192084,14.5456419 4.62612954,15.2784533 5.08,15.8465965 C5.53387046,16.4147397 6.11151512,16.8305484 6.81295129,17.0940351 C7.51438746,17.3575218 8.35197221,17.4892632 9.32573066,17.4892632 C9.55679199,17.4892632 9.82911018,17.4810293 10.1426934,17.4645614 C10.4562766,17.4480935 10.7739812,17.4192751 11.0958166,17.3781053 C11.417652,17.3369355 11.7353566,17.2957663 12.0489398,17.2545965 C12.3625231,17.2134267 12.6348413,17.1681406 12.8659026,17.1187368 L12.8659026,19.317193 C12.3542668,19.4489363 11.7683701,19.5559762 11.1081948,19.6383158 C10.4480196,19.7206554 9.8126105,19.7618246 9.20194842,19.7618246 Z M16.9213181,3.60687719 C16.3766735,3.60687719 15.9805743,3.48336966 15.7330086,3.23635088 C15.4854429,2.9893321 15.3616619,2.60234182 15.3616619,2.07536842 C15.3616619,1.54839503 15.4854429,1.16140474 15.7330086,0.914385965 C15.9805743,0.667367186 16.3766735,0.543859649 16.9213181,0.543859649 C17.9775984,0.543859649 18.5057307,1.05435747 18.5057307,2.07536842 C18.5057307,3.09637937 17.9775984,3.60687719 16.9213181,3.60687719 Z M15.6092264,6.17585965 L18.2334097,6.17585965 L18.2334097,19.514807 L15.6092264,19.514807 L15.6092264,6.17585965 Z M21.7689398,6.17585965 L23.9970201,6.17585965 L24.1703152,7.97908772 L24.269341,7.97908772 C24.9130118,7.55092184 25.6144375,7.14746388 26.373639,6.76870175 C27.1328405,6.38993963 27.8590223,6.11822305 28.5522063,5.95354386 L29.2948997,5.95354386 L29.2948997,8.39901754 L28.3293983,8.39901754 C27.6362143,8.49782506 26.9430407,8.67485252 26.2498567,8.93010526 C25.5566728,9.185358 24.9460198,9.47765917 24.4178797,9.80701754 L24.4178797,19.514807 L21.7689398,19.514807 L21.7689398,6.17585965 Z M36.3953582,19.7618246 C34.3983281,19.7618246 32.8840739,19.1731053 31.8525501,17.9956491 C30.8210264,16.8181929 30.3052722,15.1014382 30.3052722,12.8453333 C30.3052722,10.5892285 30.8210264,8.87247372 31.8525501,7.69501754 C32.8840739,6.51756136 34.3983281,5.92884211 36.3953582,5.92884211 C38.3758838,5.92884211 39.881886,6.51756136 40.9134097,7.69501754 C41.9449335,8.87247372 42.4606877,10.5892285 42.4606877,12.8453333 C42.4606877,15.1014382 41.9449335,16.8181929 40.9134097,17.9956491 C39.881886,19.1731053 38.3758838,19.7618246 36.3953582,19.7618246 Z M36.3953582,17.6621754 C37.6001779,17.6621754 38.470771,17.2875359 39.0071633,16.5382456 C39.5435557,15.7889553 39.8117479,14.5579969 39.8117479,12.8453333 C39.8117479,11.1326698 39.5394297,9.90582827 38.9947851,9.16477193 C38.4501405,8.42371559 37.5836736,8.05319298 36.3953582,8.05319298 C35.1905384,8.05319298 34.3199454,8.42371559 33.783553,9.16477193 C33.2471606,9.90582827 32.9789685,11.1326698 32.9789685,12.8453333 C32.9789685,14.5579969 33.2471606,15.7889553 33.783553,16.5382456 C34.3199454,17.2875359 35.1905384,17.6621754 36.3953582,17.6621754 Z M45.8476791,1.23550877 L47.3083095,1.23550877 L56.6167335,14.7720702 L57.9535817,16.9211228 L58.1021203,16.9211228 L58.1021203,1.23550877 L59.5875072,1.23550877 L59.5875072,19.514807 L58.0773639,19.514807 L48.7689398,5.97824561 L47.4568481,3.85389474 L47.3330659,3.85389474 L47.3330659,19.514807 L45.8476791,19.514807 L45.8476791,1.23550877 Z M66.9107736,19.7618246 C64.7486998,19.7618246 63.6676791,18.5679184 63.6676791,16.1800702 L63.6676791,6.17585965 L65.2520917,6.17585965 L65.2520917,15.7354386 C65.2520917,16.67411 65.417133,17.3410507 65.7472206,17.7362807 C66.0773082,18.1315107 66.6136926,18.3291228 67.3563897,18.3291228 C68.1155912,18.3291228 68.8789073,18.1726799 69.646361,17.8597895 C70.4138147,17.546899 71.2431474,17.1516749 72.134384,16.6741053 L72.134384,6.17585965 L73.7187966,6.17585965 L73.7187966,19.514807 L72.3819484,19.514807 L72.2581662,17.9338947 L72.1591404,17.9338947 C71.5484783,18.2632531 71.007968,18.5432035 70.5375931,18.7737544 C70.0672183,19.0043052 69.6339848,19.1936835 69.2378797,19.3418947 C68.8417745,19.490106 68.4580534,19.5971459 68.0867049,19.6630175 C67.7153563,19.7288892 67.3233832,19.7618246 66.9107736,19.7618246 Z M77.5761605,6.17585965 L78.9130086,6.17585965 L79.0367908,7.68266667 L79.1605731,7.68266667 C80.3158797,7.05688576 81.2937496,6.60814171 82.094212,6.33642105 C82.8946745,6.0647004 83.6579906,5.92884211 84.3841834,5.92884211 C85.4734725,5.92884211 86.282175,6.21290944 86.8103152,6.78105263 C87.3384554,7.34919582 87.6025215,8.25903468 87.6025215,9.51059649 L87.6025215,19.514807 L86.0428653,19.514807 L86.0428653,9.97992982 C86.0428653,9.02479055 85.8695719,8.34549909 85.5229799,7.94203509 C85.176388,7.53857108 84.6317516,7.33684211 83.8890544,7.33684211 C83.2453836,7.33684211 82.5192018,7.47681731 81.7104871,7.75677193 C80.9017725,8.03672655 80.0518096,8.42371683 79.1605731,8.91775439 L79.1605731,19.514807 L77.5761605,19.514807 L77.5761605,6.17585965 Z M96.4606877,19.7371228 C94.5956927,19.7371228 93.1804633,19.1689881 92.214957,18.0327018 C91.2494508,16.8964154 90.7667049,15.2496482 90.7667049,13.0923509 C90.7667049,10.7703744 91.2370727,9.00009966 92.1778223,7.78147368 C93.118572,6.56284771 94.4884151,5.95354386 96.2873926,5.95354386 C97.7892912,5.95354386 98.9280764,6.44757401 99.7037822,7.43564912 C100.479488,8.42372424 100.867335,9.87287934 100.867335,11.7831579 C100.867335,12.5242142 100.834327,13.0841151 100.768309,13.4628772 L92.3511175,13.4628772 C92.417135,15.1426049 92.792604,16.3817972 93.4775358,17.1804912 C94.1624676,17.9791853 95.198102,18.3785263 96.5844699,18.3785263 C97.1621232,18.3785263 97.756272,18.3208895 98.3669341,18.205614 C98.9775962,18.0903386 99.6130053,17.9009604 100.273181,17.6374737 L100.396963,18.9466667 C99.8193094,19.1936854 99.1797743,19.3871806 98.4783381,19.5271579 C97.7769019,19.6671352 97.1043585,19.7371228 96.4606877,19.7371228 Z M96.2626361,7.26273684 C93.8199878,7.26273684 92.5244134,8.92597167 92.3758739,12.2524912 L99.3819484,12.2524912 C99.3324353,10.473956 99.0642431,9.19771147 98.5773639,8.4237193 C98.0904847,7.64972712 97.3189165,7.26273684 96.2626361,7.26273684 Z M107.2251,19.7865263 C106.96103,19.7865263 106.696964,19.7782925 106.432894,19.7618246 C106.168824,19.7453566 105.880002,19.7124213 105.566418,19.6630175 C105.252835,19.6136138 104.906248,19.5559769 104.526648,19.4901053 C104.147047,19.4242336 103.726191,19.3418952 103.264069,19.2430877 L103.264069,17.8844912 C103.957253,18.0656383 104.629796,18.2097305 105.281719,18.3167719 C105.933642,18.4238134 106.548421,18.4773333 107.126074,18.4773333 C108.083329,18.4773333 108.817762,18.2632536 109.329398,17.8350877 C109.841034,17.4069218 110.096848,16.797618 110.096848,16.0071579 C110.096848,15.2002299 109.857538,14.6073937 109.378911,14.2286316 C108.900284,13.8498695 108.248371,13.569919 107.423152,13.3887719 C106.961029,13.2899644 106.490661,13.1746907 106.012034,13.0429474 C105.533407,12.911204 105.1043,12.713592 104.724699,12.4501053 C104.345098,12.1866186 104.03152,11.8284467 103.783954,11.3755789 C103.536388,10.9227112 103.412607,10.3175243 103.412607,9.56 C103.412607,8.4072457 103.804581,7.50152376 104.588539,6.84280702 C105.372497,6.18409027 106.449391,5.85473684 107.819255,5.85473684 C108.066821,5.85473684 108.302005,5.86297068 108.524814,5.8794386 C108.747623,5.89590652 108.986933,5.92472494 109.242751,5.96589474 C109.498569,6.00706453 109.779139,6.05646755 110.08447,6.11410526 C110.389801,6.17174298 110.757018,6.24173058 111.186132,6.32407018 L111.136619,7.68266667 C110.393922,7.50151956 109.787395,7.37801203 109.31702,7.31214035 C108.846645,7.24626868 108.396908,7.21333333 107.967794,7.21333333 C106.994035,7.21333333 106.251349,7.41506231 105.739713,7.81852632 C105.228078,8.22199032 104.972264,8.79424191 104.972264,9.53529825 C104.972264,9.97993205 105.050658,10.3422208 105.20745,10.6221754 C105.364241,10.9021301 105.574669,11.1326775 105.838739,11.3138246 C106.102809,11.4949717 106.412262,11.6390638 106.767106,11.7461053 C107.12195,11.8531467 107.505671,11.9560697 107.918281,12.0548772 C108.462925,12.1866205 108.962175,12.3430634 109.416046,12.5242105 C109.869916,12.7053576 110.266016,12.9441389 110.604355,13.2405614 C110.942695,13.5369839 111.202635,13.8992727 111.384183,14.3274386 C111.565732,14.7556045 111.656504,15.2908038 111.656504,15.9330526 C111.656504,17.1352107 111.264531,18.0779849 110.480573,18.7614035 C109.696615,19.4448221 108.611468,19.7865263 107.2251,19.7865263 Z" id="CiroNunes-Copy-10"></path>
            </g>
        </g>
    </g>
</svg>