<?xml version="1.0" encoding="UTF-8"?>
<svg width="15px" height="14px" viewBox="0 0 15 14" version="1.1" xmlns="http://www.w3.org/2000/svg" xmlns:xlink="http://www.w3.org/1999/xlink">
    <!-- Generator: Sketch 46.2 (44496) - http://www.bohemiancoding.com/sketch -->
    <title>noun_1167420_cc</title>
    <desc>Created with Sketch.</desc>
    <defs></defs>
    <g id="Welcome" stroke="none" stroke-width="1" fill="none" fill-rule="evenodd">
        <g id="Desktop" transform="translate(-969.000000, -33.000000)" fill-rule="nonzero" fill="#999999">
            <g id="blog-link" transform="translate(930.000000, 30.000000)">
                <g id="noun_1167420_cc" transform="translate(39.000000, 3.000000)">
                    <path d="M0.8125,14 L12.1875,14 L12.1875,14 C12.634375,14 13,13.634375 13,13.1875 L13,6.6875 L11.375,6.6875 L11.375,12.375 L1.625,12.375 L1.625,2.625 L7.3125,2.625 L7.3125,1 L0.8125,1 L0.8125,1 C0.365625,1 0,1.365625 0,1.8125 L0,13.1875 C7.21644966e-16,13.634375 0.365625,14 0.8125,14 Z" id="Shape"></path>
                    <polygon id="Shape" points="7 6.86294416 8.13417722 8 13.3797468 2.76142132 13.3797468 4.52791878 15 4.52791878 15 0 10.4632911 0 10.4632911 1.62436548 12.2253165 1.62436548"></polygon>
                </g>
            </g>
        </g>
    </g>
</svg>